<?xml version="1.0" standalone="no"?>
<!DOCTYPE svg PUBLIC "-//W3C//DTD SVG 20010904//EN"
 "http://www.w3.org/TR/2001/REC-SVG-20010904/DTD/svg10.dtd">
<svg version="1.0" xmlns="http://www.w3.org/2000/svg"
 width="640.000000pt" height="640.000000pt" id="laptop" viewBox="0 0 640.000000 640.000000"
 preserveAspectRatio="xMidYMid meet">

<g transform="translate(0.000000,640.000000) scale(0.100000,-0.100000)"
fill="#000000" stroke="none">
<path d="M261 5158 c14 -13 102 -86 195 -162 93 -77 172 -142 176 -145 4 -3 3
-44 -1 -91 -4 -47 -7 -86 -6 -88 1 -1 30 39 63 90 34 51 58 96 54 100 -4 4
-119 77 -257 162 -137 86 -238 146 -224 134z"/>
<path d="M3425 5016 c-81 -17 -152 -55 -203 -110 -62 -67 -54 -69 33 -9 16 11
48 12 150 7 139 -7 195 1 236 35 21 16 27 17 59 6 103 -36 174 -87 235 -170
l38 -50 -8 35 c-23 107 -59 145 -155 163 -47 9 -60 16 -64 33 -9 34 -48 52
-137 64 -98 12 -106 12 -184 -4z"/>
<path d="M3373 4865 c-83 -23 -146 -60 -197 -116 l-46 -51 0 -97 c1 -53 5
-196 10 -319 10 -254 17 -278 101 -363 92 -94 304 -123 429 -59 126 64 176
168 235 495 15 83 33 162 40 177 36 76 -64 226 -192 291 -108 55 -266 72 -380
42z m420 -180 c14 -27 39 -63 56 -79 27 -26 31 -37 31 -82 0 -84 -19 -255 -36
-311 -16 -58 -15 -58 -105 -54 -31 2 -66 -2 -78 -9 -19 -10 -21 -17 -15 -59 5
-41 3 -51 -19 -76 -22 -26 -32 -30 -96 -33 -82 -5 -144 13 -181 53 -30 32 -30
78 -2 108 12 13 22 26 22 29 0 10 -54 27 -119 37 -36 6 -69 15 -74 20 -15 15
-29 196 -23 281 7 95 20 142 51 179 33 39 69 43 194 20 58 -10 120 -19 138
-19 47 0 119 36 167 84 l41 41 11 -40 c6 -22 22 -62 37 -90z"/>
<path d="M3342 4538 c-18 -18 -15 -77 4 -85 29 -11 49 11 49 53 0 31 -4 40
-20 42 -11 1 -26 -3 -33 -10z"/>
<path d="M3662 4518 c-30 -39 -20 -98 18 -98 37 0 53 65 24 94 -19 19 -28 20
-42 4z"/>
<path d="M4550 4000 c-10 -6 -17 -32 -20 -77 -4 -58 -8 -68 -25 -71 -11 -2
-50 -17 -87 -34 l-68 -31 -45 42 c-26 24 -54 41 -68 41 -34 0 -201 -172 -194
-200 6 -23 0 -24 -39 -9 -16 5 -86 25 -156 44 l-128 34 0 -52 c-1 -76 -29
-130 -87 -167 -81 -51 -165 -63 -255 -36 -95 28 -149 96 -163 203 -8 61 8 59
-150 17 -123 -32 -216 -64 -309 -109 l-79 -37 24 -20 c21 -17 22 -19 4 -15
-11 3 -27 8 -35 11 -10 4 -21 -3 -33 -24 -20 -33 -83 -194 -99 -252 l-10 -36
-167 -4 c-143 -3 -170 -6 -194 -22 -55 -37 -55 -39 -63 -491 l-7 -420 -37 -18
c-85 -40 -168 -137 -192 -223 -7 -29 -6 -46 7 -80 19 -50 107 -137 178 -174
l47 -25 0 -79 c0 -44 -2 -77 -4 -75 -2 2 -34 42 -71 89 -76 94 -292 342 -455
520 -58 64 -125 138 -149 165 l-43 50 31 -47 c71 -106 146 -194 430 -499 136
-146 261 -294 261 -309 0 -5 -16 -14 -35 -20 -50 -16 -69 -49 -63 -109 6 -59
37 -126 80 -170 l33 -34 127 6 c167 8 372 46 460 85 24 11 79 25 123 31 44 7
134 23 200 36 66 13 198 38 293 54 l172 30 113 -20 c61 -10 166 -29 232 -40
66 -11 178 -32 250 -45 192 -36 173 -44 223 94 24 64 45 123 47 130 3 6 13 12
24 12 35 0 177 -49 204 -70 31 -24 47 -75 47 -146 l0 -51 -46 -13 c-43 -12
-205 -9 -289 5 -27 5 -25 3 10 -13 56 -26 204 -50 384 -62 172 -12 185 -9 243
59 36 42 68 119 68 163 0 37 -38 64 -111 77 -34 6 -63 12 -65 13 -2 3 -6 134
-5 171 1 9 6 17 12 17 22 0 155 85 202 129 59 55 77 88 77 138 0 44 -47 149
-79 177 -11 11 -21 23 -21 27 0 5 59 100 131 211 72 112 121 194 110 184 -23
-21 -129 -176 -205 -298 -27 -43 -50 -78 -52 -78 -2 0 -25 11 -52 24 -26 14
-64 28 -84 31 l-38 6 0 104 c0 57 5 117 11 132 7 15 22 52 35 81 36 79 27 77
-12 -3 l-34 -70 0 130 c0 129 0 130 28 154 20 18 22 22 7 17 -11 -4 -24 -8
-30 -9 -6 -1 -12 53 -15 138 -5 148 -11 168 -62 203 -19 14 -55 18 -199 20
l-177 4 -25 86 c-29 102 -26 112 58 197 159 162 416 159 571 -7 141 -151 143
-383 4 -541 l-41 -46 25 -48 c14 -26 28 -71 32 -99 5 -45 3 -53 -21 -82 -15
-18 -22 -32 -16 -32 5 0 13 5 16 11 4 5 17 15 28 20 12 5 37 21 56 34 19 14
37 25 40 25 3 0 5 -30 4 -67 l-2 -68 13 72 c8 39 16 76 20 81 3 5 38 28 77 52
68 40 70 43 53 61 -16 17 -15 22 14 91 17 40 33 81 36 91 4 14 17 17 64 17 87
0 92 8 92 163 0 90 -4 128 -12 134 -7 4 -41 10 -76 13 l-64 5 -18 52 c-10 29
-26 67 -34 84 -22 45 -21 50 24 94 22 21 40 48 40 60 0 29 -168 195 -198 195
-12 0 -42 -18 -67 -41 l-45 -42 -68 31 c-37 17 -76 32 -87 34 -17 3 -20 12
-23 68 -2 35 -8 70 -14 77 -13 16 -254 18 -278 3z m-379 -1137 l29 -33 110 32
c60 17 113 28 116 25 11 -10 93 -409 94 -451 0 -31 -7 -44 -37 -74 -35 -33
-319 -221 -354 -234 -26 -10 -42 -138 -18 -138 6 0 9 -14 7 -32 l-3 -33 -653
-9 c-472 -6 -660 -5 -678 3 -27 12 -33 51 -11 70 10 8 12 24 6 63 -4 29 -8 61
-8 70 -1 9 -11 20 -23 23 -24 8 -314 188 -340 211 -43 39 -43 62 -2 270 21
107 41 199 44 204 4 7 143 -2 210 -14 20 -3 28 2 40 27 10 21 27 36 50 44 26
9 209 11 713 10 l679 -2 29 -32z m-1507 -1382 c26 -68 45 -125 44 -127 -2 -2
-44 -10 -92 -19 -103 -17 -176 -19 -228 -5 -45 13 -55 44 -38 123 12 58 36 92
78 109 57 23 177 56 183 50 4 -4 27 -63 53 -131z"/>
<path d="M2712 2520 c0 -14 2 -19 5 -12 2 6 2 18 0 25 -3 6 -5 1 -5 -13z"/>
<path d="M4165 2528 c-4 -9 -5 -25 -3 -34 2 -14 5 -15 14 -3 7 8 8 22 4 34 -7
18 -9 18 -15 3z"/>
<path d="M1610 1059 c0 -45 29 -87 75 -109 41 -20 68 -20 1773 -20 1446 0
1738 2 1765 14 47 20 78 58 84 105 l6 41 -1852 0 -1851 0 0 -31z"/>
</g>
</svg>
